<svg width="24" height="25" viewBox="0 0 24 25" fill="none" xmlns="http://www.w3.org/2000/svg">
<path d="M20 17.9772V12.4293C20 11.8949 19.9995 11.6276 19.9346 11.379C19.877 11.1586 19.7825 10.9501 19.6546 10.7617C19.5102 10.5491 19.3096 10.3727 18.9074 10.0209L14.1074 5.82088C13.3608 5.16759 12.9875 4.84111 12.5674 4.71687C12.1972 4.6074 11.8026 4.6074 11.4324 4.71687C11.0126 4.84102 10.6398 5.16719 9.89436 5.81949L5.09277 10.0209C4.69064 10.3727 4.49004 10.5491 4.3457 10.7617C4.21779 10.9501 4.12255 11.1586 4.06497 11.379C4 11.6276 4 11.8949 4 12.4293V17.9772C4 18.9091 4 19.3749 4.15224 19.7424C4.35523 20.2325 4.74432 20.6223 5.23438 20.8253C5.60192 20.9775 6.06786 20.9775 6.99974 20.9775C7.93163 20.9775 8.39808 20.9775 8.76562 20.8253C9.25568 20.6223 9.64467 20.2325 9.84766 19.7425C9.9999 19.375 10 18.909 10 17.9771V16.9771C10 15.8726 10.8954 14.9771 12 14.9771C13.1046 14.9771 14 15.8726 14 16.9771V17.9771C14 18.909 14 19.375 14.1522 19.7425C14.3552 20.2325 14.7443 20.6223 15.2344 20.8253C15.6019 20.9775 16.0679 20.9775 16.9997 20.9775C17.9316 20.9775 18.3981 20.9775 18.7656 20.8253C19.2557 20.6223 19.6447 20.2325 19.8477 19.7424C19.9999 19.3749 20 18.9091 20 17.9772Z" fill="#2777EA" stroke="#2777EA" stroke-width="2" stroke-linecap="round" stroke-linejoin="round"/>
</svg>
