<svg width="17" height="16" viewBox="0 0 17 16" fill="none" xmlns="http://www.w3.org/2000/svg">
<path d="M12.914 3.14561C12.5837 2.73422 11.5926 1.5549 9.88589 1.50005C9.80331 1.50005 8.15161 1.47262 6.99542 2.73422C6.3898 3.41987 6.16957 4.16038 6.11451 4.40721C5.97687 4.95573 6.0044 5.31227 6.0044 5.64138C6.03193 5.94307 6.03193 6.1899 5.92182 6.60129C5.75665 7.17724 5.45384 7.61606 5.37125 7.72576C5.20608 7.94517 5.09597 8.05488 4.95833 8.16458C4.82068 8.27429 4.68304 8.41141 4.49035 8.65825C3.88472 9.48103 3.93978 10.4409 3.93978 10.7975C3.93978 11.3186 4.10495 13.0738 5.59148 14.0063C6.22463 14.3903 6.88531 14.5 7.40834 14.5C7.73868 14.5 8.01397 14.4726 8.23419 14.4451C9.33533 14.308 10.0786 13.8966 10.3539 13.7321C12.5561 12.4705 14.0151 9.56331 13.9326 6.68358C13.9601 5.80594 13.9326 4.37978 12.914 3.14561ZM7.02295 8.87766C6.80272 8.65825 6.77519 8.32913 6.99542 8.10973C7.21565 7.86289 7.38082 7.61606 7.49093 7.31437C7.68363 6.8207 7.68363 6.35446 7.6561 6.05277C7.62857 5.75109 7.8488 5.47683 8.15161 5.4494C8.45442 5.42198 8.72971 5.64138 8.75724 5.94307C8.83982 6.51902 8.75723 7.12239 8.53701 7.69834C8.37184 8.10973 8.12408 8.49369 7.82127 8.82281C7.71116 8.93251 7.57351 9.01479 7.40834 9.01479C7.2707 9.01479 7.13306 8.95994 7.02295 8.87766Z" fill="white"/>
</svg>
