<svg width="11" height="14" viewBox="0 0 11 14" fill="none" xmlns="http://www.w3.org/2000/svg">
<path d="M9.91425 1.79759C9.58391 1.3862 8.59289 0.206877 6.88614 0.152025C6.80355 0.152025 5.15185 0.124599 3.99566 1.3862C3.39004 2.07185 3.16982 2.81235 3.11476 3.05919C2.97712 3.60771 3.00465 3.96425 3.00465 4.29336C3.03218 4.59505 3.03217 4.84188 2.92206 5.25327C2.75689 5.82922 2.45408 6.26804 2.3715 6.37774C2.20633 6.59715 2.09621 6.70686 1.95857 6.81656C1.82093 6.92626 1.68329 7.06339 1.49059 7.31023C0.884967 8.13301 0.940024 9.09292 0.940024 9.44946C0.940024 9.97056 1.10519 11.7258 2.59172 12.6583C3.22487 13.0423 3.88555 13.152 4.40859 13.152C4.73893 13.152 5.01421 13.1245 5.23444 13.0971C6.33557 12.96 7.07884 12.5486 7.35412 12.384C9.55639 11.1224 11.0154 8.21529 10.9328 5.33555C10.9603 4.45792 10.9328 3.03176 9.91425 1.79759ZM4.02319 7.52964C3.80297 7.31023 3.77544 6.98111 3.99566 6.7617C4.21589 6.51487 4.38106 6.26804 4.49117 5.96635C4.68387 5.47268 4.68387 5.00644 4.65635 4.70475C4.62882 4.40306 4.84905 4.12881 5.15186 4.10138C5.45467 4.07396 5.72995 4.29336 5.75748 4.59505C5.84006 5.17099 5.75748 5.77437 5.53725 6.35031C5.37208 6.7617 5.12433 7.14567 4.82151 7.47478C4.7114 7.58449 4.57376 7.66677 4.40859 7.66677C4.27095 7.66677 4.13331 7.61192 4.02319 7.52964Z" fill="#E57897"/>
</svg>
