<svg width="24" height="25" viewBox="0 0 24 25" fill="none" xmlns="http://www.w3.org/2000/svg">
<path d="M11.5202 6.74479V9.62479C11.5202 10.155 11.95 10.5848 12.4802 10.5848H15.3602M17.2802 2.90479H10.56C9.49958 2.90479 8.63997 3.76439 8.63996 4.82477V6.74479M17.2802 2.90479H17.8157C18.0861 2.90479 18.3434 3.01865 18.5297 3.21461C18.8096 3.50909 19.2529 3.9625 19.6802 4.34479C20.015 4.6444 20.5411 5.1821 20.8562 5.50889C21.0265 5.68561 21.1202 5.92158 21.1202 6.16705L21.1202 6.74479M17.2802 2.90479V5.78479C17.2802 6.31498 17.71 6.74479 18.2402 6.74479H21.1202M21.1202 6.74479L21.1199 16.3448C21.1199 17.4052 20.2603 18.2648 19.1999 18.2648H15.3599M13.9202 8.18479C13.4929 7.8025 13.0496 7.34909 12.7697 7.05461C12.5834 6.85865 12.3261 6.74479 12.0557 6.74479H4.79996C3.73958 6.74479 2.87996 7.60439 2.87996 8.66478L2.87988 20.1847C2.87988 21.2451 3.73949 22.1047 4.79988 22.1047L13.4399 22.1048C14.5003 22.1048 15.3599 21.2452 15.3599 20.1848L15.3602 10.0071C15.3602 9.76158 15.2665 9.52562 15.0962 9.34889C14.7811 9.0221 14.255 8.4844 13.9202 8.18479Z" stroke="black" stroke-width="2" stroke-linecap="round" stroke-linejoin="round"/>
</svg>
