<svg width="24" height="24" viewBox="0 0 24 25" fill="none" xmlns="http://www.w3.org/2000/svg">
<path d="M3 17.3547V6.55469C3 5.45012 3.89543 4.55469 5 4.55469H8.67452C9.1637 4.55469 9.40886 4.55469 9.63904 4.60995C9.84311 4.65894 10.0379 4.73995 10.2168 4.84961C10.4186 4.97325 10.5918 5.1465 10.9375 5.49219L12 6.55469H17.8C18.9201 6.55469 19.4798 6.55469 19.9076 6.77267C20.2839 6.96442 20.5905 7.27016 20.7822 7.64648C21.0002 8.07431 21.0002 8.63436 21.0002 9.75447L21.0002 17.3545C21.0002 18.4746 21.0002 19.0346 20.7822 19.4625C20.5905 19.8388 20.2837 20.1452 19.9074 20.3369C19.48 20.5547 18.921 20.5547 17.8031 20.5547H6.19691C5.07899 20.5547 4.5192 20.5547 4.0918 20.3369C3.71547 20.1452 3.40973 19.8386 3.21799 19.4623C3 19.0345 3 18.4748 3 17.3547Z" fill="current"/>
<path d="M3 6.55469V17.3547C3 18.4748 3 19.0345 3.21799 19.4623C3.40973 19.8386 3.71547 20.1452 4.0918 20.3369C4.5192 20.5547 5.07899 20.5547 6.19691 20.5547H17.8031C18.921 20.5547 19.48 20.5547 19.9074 20.3369C20.2837 20.1452 20.5905 19.8388 20.7822 19.4625C21.0002 19.0346 21.0002 18.4746 21.0002 17.3545L21.0002 9.75447C21.0002 8.63436 21.0002 8.07431 20.7822 7.64648C20.5905 7.27016 20.2839 6.96442 19.9076 6.77267C19.4798 6.55469 18.9201 6.55469 17.8 6.55469H12M3 6.55469H12M3 6.55469C3 5.45012 3.89543 4.55469 5 4.55469H8.67452C9.1637 4.55469 9.40886 4.55469 9.63904 4.60995C9.84311 4.65894 10.0379 4.73995 10.2168 4.84961C10.4186 4.97325 10.5918 5.1465 10.9375 5.49219L12 6.55469" stroke="current" stroke-width="2" stroke-linecap="round" stroke-linejoin="round"/>
</svg>
