<svg width="21" height="21" viewBox="0 0 21 21" fill="none" xmlns="http://www.w3.org/2000/svg">
<path d="M20.6781 10.5224C20.6781 8.81998 18.9533 7.74478 17.2285 7.76718C18.3261 6.55758 18.9533 4.58638 17.7437 3.39918C16.5341 2.18958 14.5629 2.65998 13.3309 3.89198C13.2637 2.25678 12.3005 0.419983 10.6205 0.419983C8.91813 0.419983 7.84293 2.16718 7.86533 3.89198C6.65573 2.79438 4.68453 2.16718 3.49733 3.37678C2.28773 4.58638 2.75813 6.55758 3.99013 7.76718C2.35493 7.83438 0.518127 8.79758 0.518127 10.4776C0.518127 12.18 2.26533 13.2552 3.96773 13.2328C2.87013 14.4424 2.24293 16.4136 3.45253 17.6008C4.66213 18.8104 6.63333 18.34 7.86533 17.108C7.93253 18.7432 8.89573 20.58 10.5757 20.58C12.2781 20.58 13.3533 18.8328 13.3309 17.108C14.5405 18.2056 16.5117 18.8328 17.6989 17.6232C18.9085 16.4136 18.4381 14.4424 17.2061 13.2328C18.8413 13.1656 20.6781 12.2024 20.6781 10.5224ZM10.5981 13.8824C8.71653 13.8824 7.21573 12.3592 7.21573 10.5C7.21573 8.61838 8.73893 7.11758 10.5981 7.11758C12.4573 7.11758 13.9805 8.61838 13.9805 10.5C13.9805 12.3816 12.4797 13.8824 10.5981 13.8824Z" fill="#E57897"/>
</svg>
