<svg width="24" height="24" viewBox="0 0 24 24" fill="none" xmlns="http://www.w3.org/2000/svg">
<path d="M20 17.5553V12.0074C20 11.4731 19.9995 11.2057 19.9346 10.9571C19.877 10.7368 19.7825 10.5282 19.6546 10.3398C19.5102 10.1272 19.3096 9.95087 18.9074 9.599L14.1074 5.399C13.3608 4.74572 12.9875 4.41924 12.5674 4.295C12.1972 4.18552 11.8026 4.18552 11.4324 4.295C11.0126 4.41915 10.6398 4.74531 9.89436 5.39761L5.09277 9.599C4.69064 9.95087 4.49004 10.1272 4.3457 10.3398C4.21779 10.5282 4.12255 10.7368 4.06497 10.9571C4 11.2057 4 11.4731 4 12.0074V17.5553C4 18.4872 4 18.953 4.15224 19.3205C4.35523 19.8106 4.74432 20.2004 5.23438 20.4034C5.60192 20.5556 6.06786 20.5556 6.99974 20.5556C7.93163 20.5556 8.39808 20.5556 8.76562 20.4034C9.25568 20.2004 9.64467 19.8107 9.84766 19.3206C9.9999 18.9531 10 18.4871 10 17.5553V16.5553C10 15.4507 10.8954 14.5553 12 14.5553C13.1046 14.5553 14 15.4507 14 16.5553V17.5553C14 18.4871 14 18.9531 14.1522 19.3206C14.3552 19.8107 14.7443 20.2004 15.2344 20.4034C15.6019 20.5556 16.0679 20.5556 16.9997 20.5556C17.9316 20.5556 18.3981 20.5556 18.7656 20.4034C19.2557 20.2004 19.6447 19.8106 19.8477 19.3205C19.9999 18.953 20 18.4872 20 17.5553Z" fill="current" stroke="current" stroke-width="2" stroke-linecap="round" stroke-linejoin="round"/>
</svg>
