<svg width="20" height="21" viewBox="0 0 20 21" fill="none" xmlns="http://www.w3.org/2000/svg">
<path fill-rule="evenodd" clip-rule="evenodd" d="M3.33335 9.22589C4.25383 9.22589 5.00002 9.97208 5.00002 10.8926C5.00002 11.813 4.25383 12.5592 3.33335 12.5592C2.41288 12.5592 1.66669 11.813 1.66669 10.8926C1.66669 9.97208 2.41288 9.22589 3.33335 9.22589ZM10 9.22589C10.9205 9.22589 11.6667 9.97208 11.6667 10.8926C11.6667 11.813 10.9205 12.5592 10 12.5592C9.07955 12.5592 8.33335 11.813 8.33335 10.8926C8.33335 9.97208 9.07955 9.22589 10 9.22589ZM16.6667 9.22589C17.5872 9.22589 18.3334 9.97208 18.3334 10.8926C18.3334 11.813 17.5872 12.5592 16.6667 12.5592C15.7462 12.5592 15 11.813 15 10.8926C15 9.97208 15.7462 9.22589 16.6667 9.22589Z" fill="#3D4350"/>
</svg>