<svg width="24" height="25" viewBox="0 0 24 25" fill="none" xmlns="http://www.w3.org/2000/svg">
<g id="File / Note_Edit">
<path id="Vector" d="M10.0002 4.77344H7.2002C6.08009 4.77344 5.51962 4.77344 5.0918 4.99142C4.71547 5.18317 4.40973 5.48891 4.21799 5.86523C4 6.29306 4 6.85353 4 7.97363V17.5736C4 18.6937 4 19.2535 4.21799 19.6813C4.40973 20.0576 4.71547 20.3639 5.0918 20.5557C5.5192 20.7734 6.07899 20.7734 7.19691 20.7734H16.8031C17.921 20.7734 18.48 20.7734 18.9074 20.5557C19.2837 20.3639 19.5905 20.0574 19.7822 19.681C20 19.2536 20 18.6944 20 17.5765V14.7734M16 5.77344L10 11.7734V14.7734H13L19 8.77344M16 5.77344L19 2.77344L22 5.77344L19 8.77344M16 5.77344L19 8.77344" stroke="white" stroke-width="2" stroke-linecap="round" stroke-linejoin="round"/>
</g>
</svg>
