<svg width="24" height="25" viewBox="0 0 24 25" fill="none" xmlns="http://www.w3.org/2000/svg">
<path d="M2.40039 5.90469H21.6004M9.60039 17.9047V10.7047M14.4004 17.9047V10.7047M16.8004 22.7047H7.20039C5.87491 22.7047 4.80039 21.6302 4.80039 20.3047V7.10469C4.80039 6.44195 5.33765 5.90469 6.00039 5.90469H18.0004C18.6631 5.90469 19.2004 6.44195 19.2004 7.10469V20.3047C19.2004 21.6302 18.1259 22.7047 16.8004 22.7047ZM9.60039 5.90469H14.4004C15.0631 5.90469 15.6004 5.36743 15.6004 4.70469V3.50469C15.6004 2.84195 15.0631 2.30469 14.4004 2.30469H9.60039C8.93765 2.30469 8.40039 2.84195 8.40039 3.50469V4.70469C8.40039 5.36743 8.93765 5.90469 9.60039 5.90469Z" stroke="current" stroke-width="2" stroke-linecap="round" stroke-linejoin="round"/>
</svg>
